<svg width="447" height="447" viewBox="0 0 447 447" fill="none" xmlns="http://www.w3.org/2000/svg">
<g clip-path="url(#clip0_2_8)">
<g style="mix-blend-mode:luminosity" opacity="0.67">
<path d="M223.501 446.999C346.936 446.999 447 346.935 447 223.499C447 100.064 346.936 0 223.501 0C100.065 0 0.00124359 100.064 0.00124359 223.499C0.00124359 346.935 100.065 446.999 223.501 446.999Z" fill="#2B4FF9"/>
</g>
<g style="mix-blend-mode:luminosity" opacity="0.67">
<path d="M223.482 424.032C334.222 424.032 423.995 334.259 423.995 223.518C423.995 112.778 334.222 23.0051 223.482 23.0051C112.741 23.0051 22.9683 112.778 22.9683 223.518C22.9683 334.259 112.741 424.032 223.482 424.032Z" fill="#3758F7"/>
</g>
<g style="mix-blend-mode:luminosity" opacity="0.67">
<path d="M223.501 392.535C316.989 392.535 392.776 316.747 392.776 223.259C392.776 129.771 316.989 53.9835 223.501 53.9835C130.012 53.9835 54.225 129.771 54.225 223.259C54.225 316.747 130.012 392.535 223.501 392.535Z" fill="#3D5FFC"/>
</g>
</g>
<defs>
<clipPath id="clip0_2_8">
<rect width="447" height="447" fill="white"/>
</clipPath>
</defs>
</svg>
